<svg xmlns="http://www.w3.org/2000/svg" xmlns:xlink="http://www.w3.org/1999/xlink" xmlns:v="https://vecta.io/nano" width="761" height="606"><style><![CDATA[.B{fill-rule:nonzero}.C{fill:#fff}.D{stroke:#f1f0ee}.E{fill:#e76f00}.F{fill:url(#A)}.G{fill:#5382a1}]]></style><defs><linearGradient x1="100%" y1="68%" x2="0%" y2="32%" id="A"><stop stop-color="#353848" offset="0%"></stop><stop stop-color="#51597f" offset="100%"></stop></linearGradient><linearGradient x1="12.959%" y1="12.039%" x2="79.639%" y2="78.201%" id="B"><stop stop-color="#387eb8" offset="0%"></stop><stop stop-color="#366994" offset="100%"></stop></linearGradient><linearGradient x1="19.128%" y1="20.579%" x2="90.742%" y2="88.429%" id="C"><stop stop-color="#ffe052" offset="0%"></stop><stop stop-color="#ffc331" offset="100%"></stop></linearGradient><linearGradient x1="68.188%" y1="17.487%" x2="27.823%" y2="89.755%" id="D"><stop stop-color="#41873f" offset="0%"></stop><stop stop-color="#418b3d" offset="32.88%"></stop><stop stop-color="#419637" offset="63.52%"></stop><stop stop-color="#3fa92d" offset="93.19%"></stop><stop stop-color="#3fae2a" offset="100%"></stop></linearGradient><path d="M3.823.057c-.121-.069-.27-.069-.392 0L.196 1.924c-.123.069-.192.2-.192.338v3.742a.4.4 0 0 0 .192.338l3.235 1.867c.121.069.27.069.392 0l3.235-1.867c.123-.069.192-.2.192-.338V2.262a.4.4 0 0 0-.192-.338L3.823.057z" id="E"></path><linearGradient x1="43.277%" y1="55.169%" x2="159.245%" y2="-18.306%" id="F"><stop stop-color="#41873f" offset="13.76%"></stop><stop stop-color="#54a044" offset="40.32%"></stop><stop stop-color="#66b848" offset="71.36%"></stop><stop stop-color="#6cc04a" offset="90.81%"></stop></linearGradient><linearGradient x1="-4413.77%" y1="13.43%" x2="5327.93%" y2="13.43%" id="G"><stop stop-color="#6cc04a" offset="9.192%"></stop><stop stop-color="#66b848" offset="28.64%"></stop><stop stop-color="#54a044" offset="59.68%"></stop><stop stop-color="#41873f" offset="86.24%"></stop></linearGradient><linearGradient x1="-4.389%" y1="49.997%" x2="101.499%" y2="49.997%" id="H"><stop stop-color="#6cc04a" offset="9.192%"></stop><stop stop-color="#66b848" offset="28.64%"></stop><stop stop-color="#54a044" offset="59.68%"></stop><stop stop-color="#41873f" offset="86.24%"></stop></linearGradient><linearGradient x1="-9713.77%" y1="36.21%" x2="27.93%" y2="36.21%" id="I"><stop stop-color="#6cc04a" offset="9.192%"></stop><stop stop-color="#66b848" offset="28.64%"></stop><stop stop-color="#54a044" offset="59.68%"></stop><stop stop-color="#41873f" offset="86.24%"></stop></linearGradient><linearGradient x1="-103.861%" y1="50.275%" x2="100.797%" y2="50.275%" id="J"><stop stop-color="#6cc04a" offset="9.192%"></stop><stop stop-color="#66b848" offset="28.64%"></stop><stop stop-color="#54a044" offset="59.68%"></stop><stop stop-color="#41873f" offset="86.24%"></stop></linearGradient><linearGradient x1="130.613%" y1="-211.069%" x2="4.393%" y2="201.605%" id="K"><stop stop-color="#41873f" offset="0%"></stop><stop stop-color="#418b3d" offset="32.88%"></stop><stop stop-color="#419637" offset="63.52%"></stop><stop stop-color="#3fa92d" offset="93.19%"></stop><stop stop-color="#3fae2a" offset="100%"></stop></linearGradient><path id="L" d="M7.1 6.993L3.857 8.861c-.046.023-.095.039-.146.046l.061.115L7.369 6.94v-.046l-.092-.154c-.015.108-.085.2-.177.254h0z"></path></defs><g transform="translate(1 1)" fill="none" fill-rule="evenodd"><path d="M370.756 252.279v-62.882M244.415 375.381l84.569-50.263m169 50.263l-84.569-50.263" stroke="#1683fb" stroke-dasharray="0,6" stroke-linecap="round" stroke-linejoin="round" stroke-width="2"></path><g opacity=".33" fill="#1683fb"><path d="M449.283 255.682l39.036 22.538 39.036-22.538v-45.074l-39.036-22.537-39.036 22.537v45.074zm39.036 22.991l-.098-.057-39.33-22.707v-45.528l.098-.057 39.33-22.707.098.057 39.33 22.707v45.528l-.098.056-39.33 22.707h0z"></path><path d="M410.378 255.253l38.709 22.349 38.709-22.349v-44.697l-38.709-22.349-38.709 22.349v44.697zm38.709 23.557l-.262-.151-39.493-22.802v-45.906l.262-.151 39.493-22.8 39.755 22.952v45.906l-.262.15-39.493 22.802h0zm-195.963-23.368l39.036 22.538 39.036-22.538v-45.075L292.16 187.83l-39.036 22.537v45.075zm39.036 22.991l-.098-.057-39.33-22.707v-45.527l.098-.057 39.33-22.707 39.428 22.764v45.527l-.098.057-39.33 22.707h0z"></path><path d="M331.588 300.735l39.035 22.537 39.036-22.537V255.66l-39.036-22.537-39.035 22.537v45.075zm39.035 22.99l-.098-.057-39.33-22.707v-45.527l.098-.056 39.329-22.707.099.056 39.33 22.707v45.527l-.099.057-39.33 22.707h0zm117.892 22.311l39.035 22.538 39.037-22.538v-45.075l-39.037-22.537-39.035 22.537v45.075zm39.035 22.991l-39.428-22.764v-45.527l.099-.057 39.329-22.707.099.056 39.331 22.707v45.527l-.098.057-39.331 22.707h0zm-195.962 44.491l39.036 22.54 39.036-22.54v-45.074l-39.036-22.538-39.036 22.538v45.074zm39.036 22.992l-.098-.06-39.33-22.703v-45.53l.098-.057 39.33-22.707.098.057 39.33 22.707v45.53l-.098.054-39.33 22.709h0z"></path><path d="M370.819 391.093l39.036 22.535 39.036-22.535v-45.077l-39.036-22.537-39.036 22.537v45.077zm39.036 22.987l-.098-.054-39.33-22.709v-45.527l.098-.057 39.33-22.707.098.056 39.33 22.707v45.527l-.098.054-39.33 22.709h0z"></path><path d="M449.283 368.217l39.036 22.537 39.036-22.537v-45.075l-39.036-22.537-39.036 22.537v45.075zm39.036 22.99l-.098-.054-39.33-22.708v-45.528l.098-.057 39.33-22.707.098.057 39.329 22.707v45.528l-.098.056-39.33 22.707h0zm-78.268 67.969l39.036 22.54 39.036-22.54v-45.075l-39.036-22.535-39.036 22.535v45.075zm39.036 22.992l-.098-.054-39.33-22.709v-45.527l.098-.06 39.33-22.703.098.054 39.33 22.709v45.527l-.099.054-39.329 22.709h0zm-235.195-113.7l39.036 22.538 39.036-22.538v-45.075l-39.036-22.537-39.036 22.537v45.075zm39.036 22.99l-.098-.054-39.329-22.709v-45.527l.098-.057 39.33-22.707.098.057 39.33 22.707v45.527l-.098.056-39.33 22.707h0zm78.66-68.319l39.035 22.537 39.036-22.537v-45.075l-39.036-22.538-39.035 22.538v45.075zm39.035 22.99l-.098-.057-39.33-22.707v-45.528l.098-.057 39.329-22.707.099.057 39.33 22.707v45.528l-.099.056-39.33 22.707h0z"></path><path d="M292.356 345.797l39.036 22.537 39.036-22.537v-45.075l-39.036-22.538-39.036 22.538v45.075zm39.036 22.99l-.098-.056-39.33-22.707v-45.527l.098-.057 39.33-22.707.098.057 39.33 22.707v45.527l-.098.056-39.33 22.707h0z"></path></g><path d="M409.929 278.453l-39.173 22.402v45.319m-39.327-67.721l39.327 22.402" stroke="#1683fb" stroke-width=".5"></path><path d="M332.046 323.534l38.709 22.349 38.709-22.349v-44.697l-38.709-22.349-38.709 22.349v44.697zm38.709 23.556L331 324.138v-45.905l.262-.152 39.494-22.801.262.151 39.494 22.802v45.905l-.262.152-39.494 22.801h0z" fill="#1683fb"></path><rect x="37" y="365" width="250" height="150" rx="8" class="F"></rect><g class="C"><path d="M112.896 434.192c.512 0 1.029-.069 1.552-.208s1.04-.363 1.552-.672h0v-2.064a6.44 6.44 0 0 1-1.504.8c-.501.181-1.024.272-1.568.272s-1.048-.101-1.512-.304a3.7 3.7 0 0 1-1.208-.84 3.91 3.91 0 0 1-.8-1.248c-.192-.475-.288-.984-.288-1.528a4.14 4.14 0 0 1 .288-1.552c.192-.48.459-.896.8-1.248a3.76 3.76 0 0 1 1.208-.832c.464-.203.968-.304 1.512-.304.555 0 1.077.091 1.568.272s.981.459 1.472.832h0v-2.064c-.48-.299-.973-.525-1.48-.68s-1.032-.232-1.576-.232c-.811 0-1.568.149-2.272.448s-1.315.709-1.832 1.232a5.79 5.79 0 0 0-1.224 1.848c-.299.709-.448 1.469-.448 2.28 0 .821.149 1.584.448 2.288s.707 1.317 1.224 1.84 1.125.931 1.824 1.224 1.453.44 2.264.44zm12.96-.192v-1.792h-3.936V422.8H120V434h5.856zm5.568 0v-11.2h-1.92V434h1.92zm11.056 0v-1.744h-4.512v-3.168h4.128v-1.696h-4.128v-2.848h4.48V422.8h-6.4V434h6.432zm5.984 0v-8.224l6.032 8.224h1.872v-11.2h-1.856v8.208l-5.952-8.208h-1.952V434h1.856zm16.56 0v-9.424h3.104V422.8h-8.144v1.776h3.104V434h1.936zm15.776.192c.512 0 .997-.077 1.456-.232s.859-.379 1.2-.672.613-.651.816-1.072.304-.899.304-1.432c0-.747-.216-1.373-.648-1.88s-1.085-.931-1.96-1.272h0l-1.376-.528c-.459-.181-.805-.381-1.04-.6s-.352-.499-.352-.84c0-.384.144-.693.432-.928s.656-.352 1.104-.352c.48 0 .88.147 1.2.44s.565.653.736 1.08h0l1.648-.832c-.309-.779-.784-1.384-1.424-1.816s-1.365-.653-2.176-.664c-.491 0-.947.075-1.368.224s-.789.363-1.104.64a2.9 2.9 0 0 0-.736 1.008c-.176.395-.264.832-.264 1.312 0 .768.229 1.403.688 1.904s1.104.901 1.936 1.2h0l1.328.48c.939.341 1.408.859 1.408 1.552 0 .48-.176.845-.528 1.096s-.768.376-1.248.376c-.565 0-1.048-.163-1.448-.488s-.701-.76-.904-1.304h0l-1.696.8c.309.896.821 1.587 1.536 2.072s1.541.728 2.48.728zm9.584-.192v-11.2h-1.92V434h1.92zm8.288 0a5.58 5.58 0 0 0 2.192-.432c.683-.288 1.28-.683 1.792-1.184a5.49 5.49 0 0 0 1.208-1.776c.293-.683.44-1.419.44-2.208s-.147-1.525-.44-2.208a5.49 5.49 0 0 0-1.208-1.776c-.512-.501-1.109-.896-1.792-1.184a5.58 5.58 0 0 0-2.192-.432h0-3.664V434h3.664zm-.048-1.792h-1.696v-7.616h1.696c.533 0 1.027.099 1.48.296a3.64 3.64 0 0 1 1.176.808 3.7 3.7 0 0 1 .776 1.208 3.97 3.97 0 0 1 .28 1.496 3.97 3.97 0 0 1-.28 1.496 3.7 3.7 0 0 1-.776 1.208 3.64 3.64 0 0 1-1.176.808c-.453.197-.947.296-1.48.296h0zm16.16 1.792v-1.744h-4.512v-3.168h4.128v-1.696h-4.128v-2.848h4.48V422.8h-6.4V434h6.432zm-70.944 22.192c.512 0 .997-.077 1.456-.232s.859-.379 1.2-.672.613-.651.816-1.072.304-.899.304-1.432c0-.747-.216-1.373-.648-1.88s-1.085-.931-1.96-1.272h0l-1.376-.528c-.459-.181-.805-.381-1.04-.6s-.352-.499-.352-.84c0-.384.144-.693.432-.928s.656-.352 1.104-.352c.48 0 .88.147 1.2.44s.565.653.736 1.08h0l1.648-.832c-.309-.779-.784-1.384-1.424-1.816s-1.365-.653-2.176-.664c-.491 0-.947.075-1.368.224s-.789.363-1.104.64a2.9 2.9 0 0 0-.736 1.008c-.176.395-.264.832-.264 1.312 0 .768.229 1.403.688 1.904s1.104.901 1.936 1.2h0l1.328.48c.939.341 1.408.859 1.408 1.552 0 .48-.176.845-.528 1.096s-.768.376-1.248.376c-.565 0-1.048-.163-1.448-.488s-.701-.76-.904-1.304h0l-1.696.8c.309.896.821 1.587 1.536 2.072s1.541.728 2.48.728zm11.328-.192a5.58 5.58 0 0 0 2.192-.432c.683-.288 1.28-.683 1.792-1.184a5.49 5.49 0 0 0 1.208-1.776c.293-.683.44-1.419.44-2.208s-.147-1.525-.44-2.208a5.49 5.49 0 0 0-1.208-1.776c-.512-.501-1.109-.896-1.792-1.184a5.58 5.58 0 0 0-2.192-.432h0-3.664V456h3.664zm-.048-1.792h-1.696v-7.616h1.696c.533 0 1.027.099 1.48.296a3.64 3.64 0 0 1 1.176.808 3.7 3.7 0 0 1 .776 1.208 3.97 3.97 0 0 1 .28 1.496 3.97 3.97 0 0 1-.28 1.496 3.7 3.7 0 0 1-.776 1.208 3.64 3.64 0 0 1-1.176.808c-.453.197-.947.296-1.48.296h0zM166.768 456v-4.112l.608-.672L171.28 456h2.416l-5.056-6.08 4.688-5.12h-2.336l-4.224 4.672V444.8h-1.92V456h1.92zm12.56.192c.384 0 .749-.056 1.096-.168s.653-.277.92-.496a2.4 2.4 0 0 0 .632-.792c.155-.309.232-.667.232-1.072 0-.523-.16-.973-.48-1.352s-.848-.691-1.584-.936h0l-.928-.304c-.587-.192-.88-.475-.88-.848a.61.61 0 0 1 .272-.528c.181-.128.405-.192.672-.192.299 0 .563.096.792.288s.419.443.568.752h0l1.488-.8c-.245-.544-.621-.976-1.128-1.296s-1.08-.48-1.72-.48c-.373 0-.723.056-1.048.168s-.611.272-.856.48-.44.461-.584.76-.216.629-.216.992c0 1.088.667 1.845 2 2.272h0l.944.304c.309.096.536.208.68.336a.65.65 0 0 1 .216.512c0 .277-.104.483-.312.616s-.456.2-.744.2c-.352 0-.667-.109-.944-.328s-.485-.509-.624-.872h0l-1.504.784c.224.608.603 1.093 1.136 1.456s1.168.544 1.904.544z" class="B"></path><rect x="88" y="490" width="80" height="80" rx="8" class="D"></rect></g><path d="M134.314 521.49c2.174 0 4.476 1.192 6.114 3.246-5.37 2.962-4.5 10.678.926 12.744-.746 1.664-1.104 2.406-2.066 3.88-1.342 2.056-3.232 4.618-5.578 4.636-2.082.022-2.618-1.364-5.444-1.348s-3.414 1.372-5.5 1.352c-2.344-.02-4.136-2.332-5.478-4.388-3.75-5.746-4.146-12.492-1.832-16.08 1.646-2.548 4.242-4.038 6.68-4.038 2.482 0 4.044 1.37 6.1 1.37 1.994 0 3.208-1.374 6.078-1.374zm-.628-7.49c.286 1.944-.504 3.848-1.548 5.194-1.116 1.446-3.042 2.564-4.906 2.506-.34-1.862.532-3.778 1.592-5.068 1.162-1.422 3.156-2.514 4.862-2.632z" fill="#000" class="B"></path><rect x="264" y="410" width="80" height="80" rx="8" class="C D"></rect><path d="M305.277 438.388c2.672-2.206 5.059-2.893 6.723-1.932s2.263 3.371 1.688 6.788l-.356 1.681 1.634.532c3.247 1.211 5.035 2.935 5.035 4.856s-1.788 3.645-5.035 4.856l-1.634.532.356 1.681c.575 3.417-.024 5.828-1.688 6.788-.491.283-1.044.423-1.65.423-1.447 0-3.189-.8-5.073-2.356L304 461.088l-1.277 1.149c-1.884 1.556-3.626 2.356-5.073 2.356-.605 0-1.159-.14-1.65-.423-1.663-.96-2.263-3.371-1.688-6.788l.356-1.681-1.634-.532c-3.247-1.211-5.035-2.935-5.035-4.856s1.788-3.645 5.035-4.856l1.634-.532-.356-1.681c-.575-3.417.024-5.828 1.688-6.788s4.051-.274 6.723 1.932l1.277 1.149 1.277-1.149zm-8.788 17.757l-.328 1.547c-.423 2.514-.133 4.328.776 4.853s2.626-.131 4.591-1.754l1.175-1.058c-.819-.916-1.623-1.931-2.397-3.025-1.334-.123-2.616-.312-3.818-.563zm15.021 0c-1.202.251-2.484.44-3.818.563a33.97 33.97 0 0 1-2.397 3.025l1.175 1.058c1.966 1.623 3.682 2.279 4.591 1.754s1.2-2.339.776-4.853l-.328-1.547zm-6.258.711l-1.253.019c-.42 0-.838-.007-1.253-.019l1.253 1.515 1.253-1.515zM304 445.625l-2.655.089-1.405 2.255-1.25 2.344 1.25 2.344 1.405 2.255L304 455l2.655-.089 1.405-2.255 1.25-2.344-1.25-2.344-1.405-2.255-2.655-.089zm6.293 6.874l-.61 1.094-.643 1.075 1.939-.327-.686-1.843zm-12.586 0l-.686 1.843 1.939.327-.643-1.075-.61-1.094zm-2.514-5.775l-1.504.489c-2.389.891-3.815 2.049-3.815 3.099s1.426 2.208 3.815 3.099l1.504.489a33.98 33.98 0 0 1 1.422-3.588c-.561-1.216-1.038-2.421-1.422-3.588zm17.614 0a33.98 33.98 0 0 1-1.422 3.588c.561 1.216 1.038 2.421 1.422 3.588l1.504-.489c2.389-.891 3.815-2.049 3.815-3.099s-1.426-2.208-3.815-3.099l-1.504-.489zM304 447.5c1.551 0 2.813 1.262 2.813 2.813s-1.262 2.813-2.812 2.813-2.812-1.262-2.812-2.812 1.262-2.812 2.813-2.812zm-5.04-1.544l-1.939.327.686 1.843.61-1.094.643-1.075zm10.081 0l.643 1.075.61 1.094.686-1.843-1.939-.327zm1.285-8.053c-.964 0-2.334.677-3.854 1.932l-1.175 1.058c.819.916 1.623 1.932 2.397 3.025 1.334.123 2.616.312 3.818.563l.328-1.547c.423-2.514.133-4.328-.776-4.853-.206-.119-.454-.178-.737-.178zm-8.797 1.931c-1.966-1.623-3.682-2.279-4.591-1.754s-1.2 2.339-.776 4.853l.328 1.547c1.202-.251 2.484-.44 3.818-.563a33.97 33.97 0 0 1 2.397-3.025l-1.175-1.058zm2.471 2.42l-1.253 1.515 1.253-.019 1.253.019-1.253-1.515z" fill="#62d9fb" class="B"></path><rect y="320" width="80" height="80" rx="8" class="C D"></rect><path d="M45.318 355.979c.367 0 .665.297.665.665h0v10.646c0 1.608-1.144 2.952-2.661 3.26h0v3.393a2 2 0 0 1-1.996 1.996 2 2 0 0 1-1.996-1.996h0v-3.327h-1.331v3.327a2 2 0 0 1-1.996 1.996 2 2 0 0 1-1.996-1.996h0v-3.393c-1.517-.31-2.661-1.653-2.661-3.26h0v-10.646c0-.367.298-.665.665-.665h0zm3.992 0a2 2 0 0 1 1.996 1.996h0v6.654a2 2 0 0 1-1.996 1.996 2 2 0 0 1-1.996-1.996h0v-6.654a2 2 0 0 1 1.996-1.996zm-21.292 0a2 2 0 0 1 1.996 1.996h0v6.654a2 2 0 0 1-1.996 1.996 2 2 0 0 1-1.996-1.996h0v-6.654a2 2 0 0 1 1.996-1.996zm14.027-11.573c.144-.339.539-.496.873-.35s.495.535.35.873h0l-1.122 2.618c2.284 1.24 3.837 3.661 3.837 6.437 0 .367-.298.665-.665.665h0H32.01c-.367 0-.665-.298-.665-.665 0-2.776 1.553-5.196 3.838-6.437h0l-1.122-2.618c-.145-.337.011-.728.349-.873s.729.011.873.35h0l1.124 2.619a7.29 7.29 0 0 1 4.517 0h0zm-6.043 6.25c-.367 0-.665.298-.665.665s.298.665.665.665.665-.298.665-.665-.298-.665-.665-.665zm5.323 0c-.367 0-.665.298-.665.665s.298.665.665.665.665-.298.665-.665-.298-.665-.665-.665z" fill="#a4c639" class="B"></path><rect x="483" y="362" width="250" height="150" rx="8" class="F"></rect><g class="C"><path d="M555.232 431.192c.512 0 .997-.077 1.456-.232s.859-.379 1.2-.672.613-.651.816-1.072.304-.899.304-1.432c0-.747-.216-1.373-.648-1.88s-1.085-.931-1.96-1.272h0l-1.376-.528c-.459-.181-.805-.381-1.04-.6s-.352-.499-.352-.84c0-.384.144-.693.432-.928s.656-.352 1.104-.352c.48 0 .88.147 1.2.44s.565.653.736 1.08h0l1.648-.832c-.309-.779-.784-1.384-1.424-1.816s-1.365-.653-2.176-.664c-.491 0-.947.075-1.368.224s-.789.363-1.104.64a2.9 2.9 0 0 0-.736 1.008c-.176.395-.264.832-.264 1.312 0 .768.229 1.403.688 1.904s1.104.901 1.936 1.2h0l1.328.48c.939.341 1.408.859 1.408 1.552 0 .48-.176.845-.528 1.096s-.768.376-1.248.376c-.565 0-1.048-.163-1.448-.488s-.701-.76-.904-1.304h0l-1.696.8c.309.896.821 1.587 1.536 2.072s1.541.728 2.48.728zm14.096-.192v-1.744h-4.512v-3.168h4.128v-1.696h-4.128v-2.848h4.48V419.8h-6.4V431h6.432zm6.032 0v-4.432h.864l3.088 4.432h2.256l-3.296-4.592a3.68 3.68 0 0 0 1.824-1.136c.469-.544.704-1.232.704-2.064 0-.544-.093-1.027-.28-1.448a2.99 2.99 0 0 0-.792-1.072c-.341-.293-.747-.515-1.216-.664s-.987-.224-1.552-.224h0-3.504V431h1.904zm1.6-6.048h-1.6v-3.424h1.6c.565 0 1.027.147 1.384.44s.536.712.536 1.256-.179.968-.536 1.272-.819.456-1.384.456h0zM589.424 431l4.336-11.2h-1.984l-3.056 8.176-3.072-8.176h-2.032l4.336 11.2h1.472zm14.224 0v-1.744h-4.512v-3.168h4.128v-1.696h-4.128v-2.848h4.48V419.8h-6.4V431h6.432zm6.032 0v-4.432h.864l3.088 4.432h2.256l-3.296-4.592a3.68 3.68 0 0 0 1.824-1.136c.469-.544.704-1.232.704-2.064 0-.544-.093-1.027-.28-1.448a2.99 2.99 0 0 0-.792-1.072c-.341-.293-.747-.515-1.216-.664s-.987-.224-1.552-.224h0-3.504V431h1.904zm1.6-6.048h-1.6v-3.424h1.6c.565 0 1.027.147 1.384.44s.536.712.536 1.256-.179.968-.536 1.272-.819.456-1.384.456h0zm17.232 6.24c.512 0 .997-.077 1.456-.232s.859-.379 1.2-.672.613-.651.816-1.072.304-.899.304-1.432c0-.747-.216-1.373-.648-1.88s-1.085-.931-1.96-1.272h0l-1.376-.528c-.459-.181-.805-.381-1.04-.6s-.352-.499-.352-.84c0-.384.144-.693.432-.928s.656-.352 1.104-.352c.48 0 .88.147 1.2.44s.565.653.736 1.08h0l1.648-.832c-.309-.779-.784-1.384-1.424-1.816s-1.365-.653-2.176-.664c-.491 0-.947.075-1.368.224s-.789.363-1.104.64a2.9 2.9 0 0 0-.736 1.008c-.176.395-.264.832-.264 1.312 0 .768.229 1.403.688 1.904s1.104.901 1.936 1.2h0l1.328.48c.939.341 1.408.859 1.408 1.552 0 .48-.176.845-.528 1.096s-.768.376-1.248.376c-.565 0-1.048-.163-1.448-.488s-.701-.76-.904-1.304h0l-1.696.8c.309.896.821 1.587 1.536 2.072s1.541.728 2.48.728zm9.584-.192v-11.2h-1.92V431h1.92zm8.288 0a5.58 5.58 0 0 0 2.192-.432c.683-.288 1.28-.683 1.792-1.184a5.49 5.49 0 0 0 1.208-1.776c.293-.683.44-1.419.44-2.208s-.147-1.525-.44-2.208a5.49 5.49 0 0 0-1.208-1.776c-.512-.501-1.109-.896-1.792-1.184a5.58 5.58 0 0 0-2.192-.432h0-3.664V431h3.664zm-.048-1.792h-1.696v-7.616h1.696c.533 0 1.027.099 1.48.296a3.64 3.64 0 0 1 1.176.808 3.7 3.7 0 0 1 .776 1.208 3.97 3.97 0 0 1 .28 1.496 3.97 3.97 0 0 1-.28 1.496 3.7 3.7 0 0 1-.776 1.208 3.64 3.64 0 0 1-1.176.808c-.453.197-.947.296-1.48.296h0zm16.16 1.792v-1.744h-4.512v-3.168h4.128v-1.696h-4.128v-2.848h4.48V419.8h-6.4V431h6.432zm-72.656 22.192c.512 0 .997-.077 1.456-.232s.859-.379 1.2-.672.613-.651.816-1.072.304-.899.304-1.432c0-.747-.216-1.373-.648-1.88s-1.085-.931-1.96-1.272h0l-1.376-.528c-.459-.181-.805-.381-1.04-.6s-.352-.499-.352-.84c0-.384.144-.693.432-.928s.656-.352 1.104-.352c.48 0 .88.147 1.2.44s.565.653.736 1.08h0l1.648-.832c-.309-.779-.784-1.384-1.424-1.816s-1.365-.653-2.176-.664c-.491 0-.947.075-1.368.224s-.789.363-1.104.64a2.9 2.9 0 0 0-.736 1.008c-.176.395-.264.832-.264 1.312 0 .768.229 1.403.688 1.904s1.104.901 1.936 1.2h0l1.328.48c.939.341 1.408.859 1.408 1.552 0 .48-.176.845-.528 1.096s-.768.376-1.248.376c-.565 0-1.048-.163-1.448-.488s-.701-.76-.904-1.304h0l-1.696.8c.309.896.821 1.587 1.536 2.072s1.541.728 2.48.728zm11.328-.192a5.58 5.58 0 0 0 2.192-.432c.683-.288 1.28-.683 1.792-1.184a5.49 5.49 0 0 0 1.208-1.776c.293-.683.44-1.419.44-2.208s-.147-1.525-.44-2.208a5.49 5.49 0 0 0-1.208-1.776c-.512-.501-1.109-.896-1.792-1.184a5.58 5.58 0 0 0-2.192-.432h0-3.664V453h3.664zm-.048-1.792h-1.696v-7.616h1.696c.533 0 1.027.099 1.48.296a3.64 3.64 0 0 1 1.176.808 3.7 3.7 0 0 1 .776 1.208 3.97 3.97 0 0 1 .28 1.496 3.97 3.97 0 0 1-.28 1.496 3.7 3.7 0 0 1-.776 1.208 3.64 3.64 0 0 1-1.176.808c-.453.197-.947.296-1.48.296h0zM612.768 453v-4.112l.608-.672L617.28 453h2.416l-5.056-6.08 4.688-5.12h-2.336l-4.224 4.672V441.8h-1.92V453h1.92zm12.56.192c.384 0 .749-.056 1.096-.168s.653-.277.92-.496a2.4 2.4 0 0 0 .632-.792c.155-.309.232-.667.232-1.072 0-.523-.16-.973-.48-1.352s-.848-.691-1.584-.936h0l-.928-.304c-.587-.192-.88-.475-.88-.848a.61.61 0 0 1 .272-.528c.181-.128.405-.192.672-.192.299 0 .563.096.792.288s.419.443.568.752h0l1.488-.8c-.245-.544-.621-.976-1.128-1.296s-1.08-.48-1.72-.48c-.373 0-.723.056-1.048.168s-.611.272-.856.48-.44.461-.584.76-.216.629-.216.992c0 1.088.667 1.845 2 2.272h0l.944.304c.309.096.536.208.68.336a.65.65 0 0 1 .216.512c0 .277-.104.483-.312.616s-.456.2-.744.2c-.352 0-.667-.109-.944-.328s-.485-.509-.624-.872h0l-1.504.784c.224.608.603 1.093 1.136 1.456s1.168.544 1.904.544z" class="B"></path><rect x="461" y="492" width="80" height="80" rx="8" class="D"></rect></g><g transform="translate(484 515)" class="B"><path d="M16.842.01C8.232.01 8.77 3.744 8.77 3.744l.01 3.869h8.217v1.161H5.516s-5.51-.625-5.51 8.063 4.809 8.38 4.809 8.38h2.87v-4.032s-.155-4.809 4.732-4.809h8.15s4.579.074 4.579-4.425V4.512S25.841.01 16.842.01zm-4.531 2.602c.392 0 .768.155 1.046.433s.433.653.433 1.046-.155.768-.433 1.046-.653.433-1.046.433-.768-.155-1.046-.433-.433-.653-.433-1.046.155-.768.433-1.046.653-.433 1.046-.433h0z" fill="url(#B)"></path><path d="M17.087 33.751c8.611 0 8.073-3.734 8.073-3.734l-.01-3.868h-8.217v-1.161h11.48s5.51.625 5.51-8.063-4.809-8.38-4.809-8.38h-2.87v4.032s.155 4.809-4.732 4.809h-8.15s-4.579-.074-4.579 4.425v7.439s-.695 4.502 8.303 4.502h0zm4.531-2.601c-.392 0-.768-.155-1.046-.433s-.433-.653-.433-1.046.155-.768.433-1.046.654-.433 1.046-.433.768.155 1.046.433.433.653.433 1.046-.155.768-.433 1.046-.653.433-1.046.433h0z" fill="url(#C)"></path></g><rect x="631" y="524" width="80" height="80" rx="8" class="C D"></rect><g class="B"><path d="M679.507 573.809h-.128v-.072h.345v.072h-.127v.357h-.089v-.357h0zm.687.019h-.002l-.127.339h-.058l-.126-.339h-.002v.339h-.084v-.429h.124l.117.304.116-.304h.124v.429h-.082v-.339h0z" class="E"></path><path d="M668.047 565.037s-.891.518.634.693c1.847.211 2.791.18 4.826-.205 0 0 .535.336 1.282.626-4.563 1.956-10.327-.113-6.743-1.115m-.558-2.552s-.999.74.527.897c1.973.204 3.531.22 6.227-.299 0 0 .373.378.959.585-5.517 1.613-11.662.127-7.714-1.183" class="G"></path><path d="M672.19 558.156c1.124 1.294-.295 2.459-.295 2.459s2.855-1.474 1.544-3.319c-1.225-1.721-2.164-2.576 2.92-5.524 0 0-7.979 1.993-4.168 6.384" class="E"></path><path d="M678.224 566.925s.659.543-.726.963c-2.634.798-10.962 1.039-13.276.032-.832-.362.728-.864 1.219-.969.512-.111.804-.09.804-.09-.925-.652-5.978 1.279-2.567 1.832 9.303 1.509 16.959-.679 14.546-1.768m-9.749-7.084s-4.236 1.006-1.5 1.372c1.155.155 3.458.12 5.603-.06 1.753-.148 3.514-.462 3.514-.462s-.618.265-1.065.57c-4.302 1.131-12.612.605-10.22-.552 2.023-.978 3.668-.867 3.668-.867m7.599 4.248c4.373-2.272 2.351-4.456.94-4.162-.346.072-.5.134-.5.134s.128-.201.374-.288c2.792-.982 4.939 2.895-.901 4.43 0 0 .068-.06.088-.115" class="G"></path><path d="M673.438 547.011s2.422 2.423-2.297 6.148c-3.784 2.988-.863 4.692-.002 6.639-2.209-1.993-3.83-3.747-2.742-5.38 1.596-2.397 6.018-3.559 5.041-7.407" class="E"></path><path d="M668.905 570.247c4.198.269 10.643-.149 10.796-2.135 0 0-.293.753-3.469 1.351-3.583.674-8.002.596-10.622.163 0 0 .537.444 3.295.621" class="G"></path><path d="M668.217 577.836c-.396.343-.814.536-1.19.536-.536 0-.825-.321-.825-.836 0-.557.31-.965 1.554-.965h.46v1.265m1.093 1.233v-3.816c0-.975-.556-1.618-1.897-1.618-.783 0-1.468.193-2.025.44l.161.675c.439-.161 1.007-.311 1.564-.311.772 0 1.104.311 1.104.954v.482h-.385c-1.876 0-2.723.728-2.723 1.821 0 .943.558 1.48 1.608 1.48.675 0 1.179-.279 1.65-.687l.086.579h.857 0zm3.647 0h-1.363l-1.64-5.338h1.19l1.018 3.279.226.986c.515-1.426.879-2.873 1.061-4.266h1.158c-.31 1.758-.868 3.687-1.65 5.338m5.228-1.233c-.397.343-.816.536-1.191.536-.535 0-.825-.321-.825-.836 0-.557.311-.965 1.555-.965h.461v1.265m1.093 1.233v-3.816c0-.975-.557-1.618-1.896-1.618-.783 0-1.469.193-2.026.44l.161.675c.439-.161 1.008-.311 1.565-.311.772 0 1.104.311 1.104.954v.482h-.386c-1.877 0-2.723.728-2.723 1.821 0 .943.557 1.48 1.607 1.48.675 0 1.179-.279 1.651-.687l.086.579h.857 0zm-15.366.906c-.311.455-.815.815-1.365 1.018l-.539-.635c.419-.215.779-.563.946-.886.144-.288.204-.659.204-1.546v-6.094h1.161v6.01c0 1.186-.095 1.665-.406 2.132" class="E"></path></g><rect x="639" y="301" width="80" height="80" rx="8" class="C D"></rect><g transform="translate(661 331)"><g class="B"><path d="M16.815 20.816c-.115 0-.223-.031-.323-.085l-1.022-.607c-.154-.085-.077-.115-.031-.131.207-.069.246-.085.461-.207.023-.015.054-.008.077.008l.784.469c.031.015.069.015.092 0l3.066-1.775c.031-.015.046-.046.046-.085v-3.542c0-.038-.015-.069-.046-.085l-3.066-1.767c-.031-.015-.069-.015-.092 0l-3.066 1.767c-.031.015-.046.054-.046.085v3.542c0 .031.015.069.046.085l.838.484c.453.231.738-.038.738-.307v-3.496c0-.046.038-.092.092-.092h.392c.046 0 .092.038.092.092v3.496c0 .607-.33.961-.907.961-.177 0-.315 0-.707-.192l-.807-.461a.65.65 0 0 1-.323-.561v-3.542a.65.65 0 0 1 .323-.561l3.066-1.775c.192-.108.453-.108.646 0l3.066 1.775a.65.65 0 0 1 .323.561v3.542a.65.65 0 0 1-.323.561l-3.066 1.775c-.1.046-.215.069-.323.069h0zm.945-2.436c-1.345 0-1.621-.615-1.621-1.137 0-.046.038-.092.092-.092h.4c.046 0 .085.031.085.077.061.407.238.607 1.053.607.645 0 .922-.146.922-.492 0-.2-.077-.346-1.084-.446-.838-.085-1.36-.269-1.36-.937 0-.622.523-.991 1.399-.991.984 0 1.468.338 1.529 1.076 0 .023-.008.046-.023.069-.015.015-.038.031-.061.031h-.4a.09.09 0 0 1-.085-.069c-.092-.423-.33-.561-.961-.561-.707 0-.792.246-.792.43 0 .223.1.292 1.053.415.945.123 1.391.3 1.391.961-.008.676-.561 1.06-1.537 1.06z" fill="#539e43"></path><path d="M7.302 6.962a.39.39 0 0 0-.2-.338L3.844 4.749c-.054-.031-.115-.046-.177-.054h-.031c-.061 0-.123.023-.177.054L.202 6.624a.39.39 0 0 0-.2.338l.008 5.041c0 .069.038.138.1.169.061.038.138.038.192 0l1.936-1.107a.39.39 0 0 0 .2-.338V8.368a.39.39 0 0 1 .2-.338l.822-.476c.061-.038.131-.054.2-.054a.33.33 0 0 1 .192.054l.822.476a.39.39 0 0 1 .2.338v2.359a.39.39 0 0 0 .2.338l1.936 1.107c.061.038.138.038.2 0 .061-.031.1-.1.1-.169l-.008-5.041zM22.962.023c-.061-.031-.138-.031-.192 0a.2.2 0 0 0-.1.169v4.995c0 .046-.023.092-.069.123-.046.023-.092.023-.138 0l-.815-.469c-.121-.069-.27-.069-.392 0l-3.258 1.883a.39.39 0 0 0-.2.338v3.758a.39.39 0 0 0 .2.338l3.258 1.883c.121.069.27.069.392 0l3.258-1.883a.39.39 0 0 0 .2-.338V1.452c0-.146-.077-.277-.2-.346L22.962.023h0zm-.3 9.559c0 .038-.015.069-.046.085l-1.114.645c-.032.015-.068.015-.1 0l-1.114-.645c-.031-.015-.046-.054-.046-.085V8.291c0-.038.015-.069.046-.085l1.114-.646c.032-.015.068-.015.1 0l1.114.646c.031.015.046.054.046.085v1.291h0zM33.804 8.26c.123-.069.192-.2.192-.338v-.914a.4.4 0 0 0-.192-.338l-3.235-1.875c-.121-.069-.27-.069-.392 0l-3.258 1.883a.39.39 0 0 0-.2.338v3.758a.39.39 0 0 0 .2.338l3.235 1.844c.123.069.269.069.384 0l1.959-1.091c.061-.031.1-.1.1-.169s-.038-.138-.1-.169l-3.273-1.883a.2.2 0 0 1-.1-.169V8.299c0-.069.038-.138.1-.169l1.022-.584c.061-.038.139-.038.2 0l1.022.584a.2.2 0 0 1 .1.169v.922c0 .069.038.138.1.169.061.038.138.038.2 0l1.936-1.13h0z" fill="#333"></path><path d="M30.323 8.084a.07.07 0 0 1 .077 0l.622.361c.023.015.038.038.038.069v.722c0 .031-.015.054-.038.069l-.622.361a.07.07 0 0 1-.077 0l-.622-.361c-.023-.015-.038-.038-.038-.069v-.722c0-.031.015-.054.038-.069l.622-.361h0z" fill="#539e43"></path></g><g transform="translate(8.927 4.754)"><path d="M3.823.057c-.121-.069-.27-.069-.392 0L.196 1.924c-.123.069-.192.2-.192.338v3.742a.4.4 0 0 0 .192.338l3.235 1.867c.121.069.27.069.392 0l3.235-1.867c.123-.069.192-.2.192-.338V2.262a.4.4 0 0 0-.192-.338L3.823.057z" fill="url(#D)" class="B"></path><mask id="M" class="C"><use xlink:href="#E"></use></mask><g mask="url(#M)" class="B"><path d="M7.092 1.924L3.842.057C3.81.04 3.777.028 3.742.018L.1 6.258c.03.037.067.068.108.092l3.25 1.867c.092.054.2.069.3.038l3.42-6.255c-.023-.031-.054-.054-.085-.077h0z" fill="url(#F)" transform="translate(-.027)"></path></g><mask id="N" class="C"><use xlink:href="#G" href="#E"></use></mask><g mask="url(#N)"><g transform="translate(-.027 -.651)"><path fill="url(#G)" d="M3.375.035l-.069.035h.092z"></path><path d="M7.1 6.993c.092-.054.161-.146.192-.246L3.727.662a.39.39 0 0 0-.277.046L.223 2.567l3.481 6.347c.051-.008.1-.024.146-.046L7.1 6.993h0z" fill="url(#H)"></path><path fill="url(#I)" d="M7.422 6.954l-.035-.058v.081l.035-.023z"></path><use xlink:href="#L" fill="url(#J)"></use><use xlink:href="#L" fill="url(#K)"></use></g></g></g></g><rect x="432" y="347" width="80" height="80" rx="8" class="C D"></rect><path d="M462.84 381.874c1.606 0 2.801.443 3.553 1.317s.989 2.106.693 3.649c-.12.629-.327 1.212-.614 1.735s-.668 1.007-1.131 1.439c-.554.526-1.181.908-1.861 1.133-.67.222-1.53.334-2.557.334h-2.069l-.591 3.088c-.023.12-.126.206-.246.206h-2.658a.25.25 0 0 1-.194-.093c-.048-.059-.067-.136-.053-.211l2.371-12.392c.023-.12.126-.206.246-.206h5.11zm21.603 0c1.668 0 2.909.443 3.689 1.317s1.027 2.106.72 3.649c-.125.629-.34 1.212-.638 1.735s-.694 1.007-1.174 1.439c-.575.526-1.226.908-1.933 1.133-.696.222-1.589.334-2.655.334h-2.149l-.613 3.088a.26.26 0 0 1-.256.206h-2.759c-.078 0-.152-.034-.201-.093a.25.25 0 0 1-.055-.211l2.462-12.392a.26.26 0 0 1 .256-.206h5.306zm-12.536-3.295c.074 0 .144.034.191.093a.26.26 0 0 1 .052.211l-.565 2.991h2.018c1.537 0 2.58.279 3.187.853.619.585.812 1.521.574 2.782l-1.089 5.766a.25.25 0 0 1-.243.206h-2.644c-.074 0-.144-.034-.191-.093a.26.26 0 0 1-.052-.211l1.035-5.483c.098-.521.074-.896-.068-1.054-.087-.097-.349-.259-1.124-.259h-1.876l-1.302 6.893a.25.25 0 0 1-.243.206h-2.603c-.074 0-.144-.034-.191-.093a.26.26 0 0 1-.052-.211l2.341-12.392a.25.25 0 0 1 .243-.206h2.603zm-10.073 5.76h-1.614l-.895 4.676h1.312c1.01 0 1.764-.189 2.241-.562.472-.369.798-1.009.969-1.9.159-.834.099-1.416-.18-1.73-.285-.321-.902-.484-1.832-.484zm21.564 0h-1.676l-.929 4.676h1.362c1.049 0 1.831-.189 2.327-.562.49-.369.828-1.008 1.006-1.9.165-.834.102-1.416-.187-1.73-.296-.321-.936-.484-1.903-.484z" fill="#8994be" class="B"></path><rect x="679" y="477" width="80" height="80" rx="8" class="C D"></rect><path d="M704.262 521.785c.331 0 .611.111.839.334.234.223.35.49.35.802a1.06 1.06 0 0 1-.35.793 1.17 1.17 0 0 1-.839.326 1.16 1.16 0 0 1-.831-.326 1.07 1.07 0 0 1-.342-.793 1.08 1.08 0 0 1 .342-.802c.228-.223.505-.334.831-.334zm5.376-9.905l5.392 8.594.44.735h.033c-.054-.317-.081-.855-.081-1.612v-7.717h1.865v11.976h-2.118l-5.58-8.803a3.94 3.94 0 0 1-.35-.693h-.049c.043.256.065.805.065 1.645v7.851h-1.874V511.88h2.256zm16.511 0v1.687h-4.358v3.391h4.016v1.679h-4.016v3.541h4.618v1.679h-6.557V511.88h6.296zm9.579 0v1.687h-3.356v10.289h-1.939v-10.289h-3.348v-1.687h8.642z" fill="#000" class="B"></path><rect x="246" y="57" width="250" height="150" rx="8" class="F"></rect><g class="C"><path d="M305.192 137v-11.2h-1.92V137h1.92zm6.48 0v-8.224l6.032 8.224h1.872v-11.2h-1.856v8.208l-5.952-8.208h-1.952V137h1.856zm16.56 0v-9.424h3.104V125.8h-8.144v1.776h3.104V137h1.936zm13.152 0v-1.744h-4.512v-3.168H341v-1.696h-4.128v-2.848h4.48V125.8h-6.4V137h6.432zm9.168.192c.8 0 1.531-.141 2.192-.424s1.232-.672 1.712-1.168.853-1.083 1.12-1.76.4-1.405.4-2.184h0v-.72h-5.696v1.68h3.648a3.24 3.24 0 0 1-.384 1.112 3.19 3.19 0 0 1-.728.872c-.293.245-.629.437-1.008.576a3.58 3.58 0 0 1-1.24.208c-.544 0-1.048-.104-1.512-.312s-.869-.493-1.216-.856a4 4 0 0 1-.816-1.272 4.06 4.06 0 0 1-.296-1.544 4.04 4.04 0 0 1 .296-1.552c.197-.48.469-.901.816-1.264s.752-.648 1.216-.856.963-.312 1.496-.312c.715 0 1.352.165 1.912.496s.995.8 1.304 1.408h0l1.712-.864a5.02 5.02 0 0 0-.84-1.184 5.33 5.33 0 0 0-1.136-.904c-.421-.251-.88-.443-1.376-.576s-1.016-.2-1.56-.2c-.8 0-1.549.152-2.248.456s-1.312.72-1.84 1.248-.944 1.144-1.248 1.848a5.63 5.63 0 0 0-.456 2.256c0 .8.149 1.552.448 2.256s.709 1.317 1.232 1.84 1.136.936 1.84 1.24a5.63 5.63 0 0 0 2.256.456zM361.88 137v-4.432h.864l3.088 4.432h2.256l-3.296-4.592a3.68 3.68 0 0 0 1.824-1.136c.469-.544.704-1.232.704-2.064 0-.544-.093-1.027-.28-1.448a2.99 2.99 0 0 0-.792-1.072c-.341-.293-.747-.515-1.216-.664s-.987-.224-1.552-.224h0-3.504V137h1.904zm1.6-6.048h-1.6v-3.424h1.6c.565 0 1.027.147 1.384.44s.536.712.536 1.256-.179.968-.536 1.272-.819.456-1.384.456h0zm9.232 6.048l1.12-2.832h4.512L379.48 137h2.016l-4.56-11.2h-1.632l-4.56 11.2h1.968zm5.024-4.512h-3.28l1.632-4.16 1.648 4.16zM387.72 137v-9.424h3.104V125.8h-8.144v1.776h3.104V137h1.936zm8.64 0v-11.2h-1.92V137h1.92zm9.856.192c.8 0 1.555-.152 2.264-.456s1.325-.717 1.848-1.24.936-1.136 1.24-1.84a5.63 5.63 0 0 0 .456-2.256 5.67 5.67 0 0 0-.456-2.272c-.304-.704-.717-1.317-1.24-1.84s-1.139-.936-1.848-1.24-1.464-.456-2.264-.456-1.555.152-2.264.456-1.325.717-1.848 1.24-.936 1.136-1.24 1.84a5.67 5.67 0 0 0-.456 2.272 5.63 5.63 0 0 0 .456 2.256c.304.704.717 1.317 1.24 1.84s1.139.936 1.848 1.24 1.464.456 2.264.456zm0-1.856c-.544 0-1.048-.104-1.512-.312s-.869-.488-1.216-.84-.619-.768-.816-1.248a4 4 0 0 1-.296-1.536 4 4 0 0 1 .296-1.536 3.93 3.93 0 0 1 .816-1.256 3.9 3.9 0 0 1 1.216-.848c.464-.208.968-.312 1.512-.312s1.048.104 1.512.312a3.9 3.9 0 0 1 1.216.848 3.93 3.93 0 0 1 .816 1.256 4 4 0 0 1 .296 1.536 4 4 0 0 1-.296 1.536c-.197.48-.469.896-.816 1.248s-.752.632-1.216.84-.968.312-1.512.312zM417.928 137v-8.224L423.96 137h1.872v-11.2h-1.856v8.208l-5.952-8.208h-1.952V137h1.856zm15.76.192c.512 0 .997-.077 1.456-.232s.859-.379 1.2-.672.613-.651.816-1.072.304-.899.304-1.432c0-.747-.216-1.373-.648-1.88s-1.085-.931-1.96-1.272h0l-1.376-.528c-.459-.181-.805-.381-1.04-.6s-.352-.499-.352-.84c0-.384.144-.693.432-.928s.656-.352 1.104-.352c.48 0 .88.147 1.2.44s.565.653.736 1.08h0l1.648-.832c-.309-.779-.784-1.384-1.424-1.816s-1.365-.653-2.176-.664c-.491 0-.947.075-1.368.224s-.789.363-1.104.64a2.9 2.9 0 0 0-.736 1.008c-.176.395-.264.832-.264 1.312 0 .768.229 1.403.688 1.904s1.104.901 1.936 1.2h0l1.328.48c.939.341 1.408.859 1.408 1.552 0 .48-.176.845-.528 1.096s-.768.376-1.248.376c-.565 0-1.048-.163-1.448-.488s-.701-.76-.904-1.304h0l-1.696.8c.309.896.821 1.587 1.536 2.072s1.541.728 2.48.728z" class="B"></path><rect x="197" y="159" width="80" height="80" rx="8" class="D"></rect></g><g class="B"><path d="M232.707 183c-1.765.001-3.193 1.434-3.192 3.199s1.428 3.197 3.193 3.199h3.193V186.2a3.2 3.2 0 0 0-3.195-3.2m0 8.532h-8.513c-1.765.001-3.195 1.434-3.193 3.199s1.427 3.197 3.192 3.2h8.515c1.765-.001 3.195-1.434 3.193-3.199s-1.428-3.199-3.193-3.2z" fill="#36c5f0"></path><path d="M252.93 194.73c.001-1.765-1.428-3.197-3.193-3.199s-3.195 1.434-3.193 3.199v3.2h3.193c1.765-.001 3.195-1.434 3.193-3.2zm-8.515 0v-8.532a3.2 3.2 0 0 0-3.192-3.199c-1.765.001-3.195 1.434-3.193 3.199v8.532c-.003 1.765 1.427 3.197 3.192 3.2s3.195-1.434 3.193-3.2z" fill="#2eb67d"></path><path d="M241.221 214.993c1.765-.001 3.195-1.434 3.193-3.199s-1.428-3.197-3.193-3.199h-3.193v3.199a3.2 3.2 0 0 0 3.193 3.199zm0-8.533h8.515c1.765-.001 3.195-1.434 3.193-3.199s-1.427-3.197-3.192-3.2h-8.515c-1.765.001-3.195 1.434-3.193 3.199s1.427 3.199 3.192 3.2h0z" fill="#ecb22e"></path><path d="M221 203.262c-.001 1.765 1.428 3.197 3.193 3.199s3.195-1.434 3.193-3.199v-3.199h-3.193c-1.765.001-3.195 1.434-3.193 3.199zm8.515 0v8.532c-.003 1.765 1.427 3.197 3.192 3.2s3.195-1.434 3.193-3.199v-8.53c.003-1.765-1.427-3.197-3.192-3.2s-3.195 1.432-3.193 3.197" fill="#e01e5a"></path></g><rect x="398" width="80" height="80" rx="8" class="C D"></rect><path d="M442.25 40.007c.001 1.226-.221 2.442-.653 3.589-1.148.432-2.364.654-3.59.654h-.014a10.19 10.19 0 0 1-3.589-.653 10.17 10.17 0 0 1-.653-3.59v-.015c-.001-1.226.22-2.441.652-3.589a10.16 10.16 0 0 1 3.591-.654h.014c1.226-.001 2.443.221 3.59.654a10.16 10.16 0 0 1 .653 3.589v.015h0zm12.514-2.841h-9.923l7.016-7.017a17.07 17.07 0 0 0-1.837-2.171h0c-.672-.671-1.398-1.284-2.171-1.835l-7.017 7.017v-9.923a17.08 17.08 0 0 0-2.824-.237h-.018a17.09 17.09 0 0 0-2.824.237v9.923l-7.017-7.017c-.773.55-1.499 1.165-2.17 1.836l-.004.003c-.67.671-1.284 1.396-1.834 2.168l7.017 7.017h-9.923L421 39.994v.012c0 .964.082 1.908.237 2.827h9.923l-7.017 7.017a17.12 17.12 0 0 0 4.007 4.007l7.017-7.017v9.924c.932.156 1.876.235 2.821.236h.024c.945-.001 1.889-.08 2.821-.236V46.84l7.018 7.017a17.13 17.13 0 0 0 2.17-1.835l.002-.002c.671-.671 1.284-1.397 1.835-2.17l-7.017-7.017h9.924c.154-.918.235-1.859.236-2.821v-.025c-.001-.962-.082-1.903-.236-2.821z" fill="#f74703" class="B"></path><rect x="476" y="110" width="80" height="80" rx="8" class="C D"></rect><g class="B"><path d="M513.147 141.265c1.096-1.142 2.622-1.85 4.31-1.85 2.244 0 4.201 1.251 5.243 3.108.906-.405 1.908-.63 2.963-.63 4.046 0 7.327 3.309 7.327 7.391s-3.281 7.391-7.327 7.391a7.27 7.27 0 0 1-1.443-.144c-.918 1.637-2.667 2.744-4.675 2.744a5.33 5.33 0 0 1-2.343-.539c-.931 2.189-3.098 3.723-5.625 3.723-2.631 0-4.874-1.665-5.735-4-.376.08-.766.122-1.166.122-3.133 0-5.673-2.566-5.673-5.732a5.74 5.74 0 0 1 2.837-4.965 6.56 6.56 0 0 1-.543-2.622 6.6 6.6 0 0 1 6.601-6.592c2.14 0 4.043 1.018 5.249 2.594" fill="#00a1e0"></path><g class="C"><path d="M503.926 151.007c-.021.056.008.067.015.077.064.046.129.08.194.117a2.07 2.07 0 0 0 1.016.238c.697 0 1.13-.371 1.13-.968v-.012c0-.552-.488-.752-.947-.897l-.06-.019c-.346-.112-.644-.209-.644-.437v-.012c0-.195.174-.338.444-.338a2.01 2.01 0 0 1 .886.227s.067.044.092-.022l.142-.382c.013-.037-.01-.064-.034-.078-.262-.159-.624-.268-.999-.268h-.07c-.638 0-1.083.385-1.083.938v.012c0 .582.491.771.952.903l.074.023c.336.103.625.192.625.428v.012c0 .216-.188.377-.491.377a1.65 1.65 0 0 1-.898-.259l-.115-.072c-.02-.013-.07-.034-.091.031l-.138.382h0zm10.206 0c-.021.056.008.067.015.077.064.046.129.08.194.117a2.07 2.07 0 0 0 1.016.238c.697 0 1.13-.371 1.13-.968v-.012c0-.552-.488-.752-.947-.897l-.06-.019c-.346-.112-.644-.209-.644-.437v-.012c0-.195.174-.338.444-.338a2.01 2.01 0 0 1 .886.227s.067.044.092-.022l.142-.382c.013-.037-.01-.064-.034-.078-.262-.159-.624-.268-.999-.268h-.07c-.638 0-1.083.385-1.083.938v.012c0 .582.491.771.952.903l.074.023c.336.103.625.192.625.428v.012c0 .216-.188.377-.491.377a1.65 1.65 0 0 1-.898-.259l-.115-.072c-.013-.008-.072-.031-.092.031l-.138.382h0zm6.967-1.169c0 .337-.063.603-.187.791s-.308.276-.566.276-.443-.09-.564-.276-.184-.454-.184-.791.062-.602.184-.788.305-.274.564-.274.444.09.567.274.186.451.186.788m.582-.625a1.4 1.4 0 0 0-.265-.505 1.28 1.28 0 0 0-.447-.34 1.47 1.47 0 0 0-.624-.125 1.47 1.47 0 0 0-.624.125c-.178.083-.328.198-.447.34s-.207.313-.265.505-.085.402-.085.625a2.21 2.21 0 0 0 .085.625 1.41 1.41 0 0 0 .265.505 1.25 1.25 0 0 0 .447.337c.178.081.388.122.624.122s.445-.041.624-.122a1.25 1.25 0 0 0 .447-.337 1.4 1.4 0 0 0 .265-.505c.057-.192.086-.403.086-.625s-.029-.433-.086-.625m4.779 1.603c-.019-.057-.074-.035-.074-.035-.085.032-.175.062-.271.077a2.11 2.11 0 0 1-.319.023c-.282 0-.505-.084-.666-.249s-.251-.433-.25-.795c.001-.33.08-.578.223-.766s.358-.284.646-.284c.24 0 .423.028.615.088 0 0 .046.02.068-.04l.143-.398c.016-.044-.022-.063-.036-.068a2.27 2.27 0 0 0-.388-.098c-.126-.019-.273-.03-.437-.03-.245 0-.462.042-.649.125s-.344.197-.469.339-.22.313-.283.505-.095.403-.095.626c0 .483.13.873.387 1.159s.644.432 1.149.432c.298 0 .604-.06.824-.147 0 0 .042-.02.024-.069l-.143-.395h0zm1.018-1.301c.028-.187.079-.343.159-.465.121-.184.305-.286.563-.286a.61.61 0 0 1 .552.286c.081.121.117.284.131.465h-1.405zm1.959-.412c-.049-.186-.172-.375-.252-.461-.127-.137-.251-.232-.374-.285a1.44 1.44 0 0 0-.565-.114c-.246 0-.469.041-.65.126s-.334.201-.454.346a1.42 1.42 0 0 0-.267.511 2.21 2.21 0 0 0-.087.629c0 .227.03.439.09.629a1.3 1.3 0 0 0 .286.501c.129.141.296.251.495.328s.439.116.715.116c.569-.002.869-.129.992-.197.022-.012.043-.033.016-.094l-.129-.361c-.019-.054-.074-.034-.074-.034-.141.052-.341.146-.809.145-.305 0-.532-.091-.674-.231s-.217-.356-.229-.656l1.97.002s.052-.001.057-.051c.002-.021.068-.405-.059-.849m-17.736.412c.028-.187.079-.343.159-.465.121-.184.305-.286.563-.286a.61.61 0 0 1 .552.286c.081.121.116.284.13.465h-1.405 0zm1.959-.412c-.049-.186-.171-.375-.252-.461-.127-.137-.251-.232-.374-.285a1.44 1.44 0 0 0-.565-.114c-.245 0-.469.041-.65.126s-.334.201-.454.346a1.42 1.42 0 0 0-.267.511 2.23 2.23 0 0 0-.087.629c0 .227.03.439.09.629a1.3 1.3 0 0 0 .286.501c.129.141.296.251.495.328s.439.116.715.116c.569-.002.869-.129.992-.197.022-.012.043-.033.016-.094l-.128-.361c-.02-.054-.075-.034-.075-.034-.141.052-.341.146-.809.145-.305 0-.532-.091-.673-.231s-.217-.356-.23-.656l1.97.002s.052-.001.057-.051c.002-.021.068-.405-.059-.849m-6.217 1.702c-.077-.062-.088-.077-.114-.117-.039-.061-.059-.147-.059-.256 0-.173.057-.298.176-.382-.001.001.169-.148.571-.142a4.04 4.04 0 0 1 .534.046v.896h0s-.25.054-.532.071c-.401.024-.579-.116-.578-.115m.784-1.384l-.307-.009a1.87 1.87 0 0 0-.485.062c-.154.041-.292.106-.412.191a.95.95 0 0 0-.391.779 1.03 1.03 0 0 0 .09.45.81.81 0 0 0 .257.308c.109.08.245.138.401.174s.33.053.521.053c.202 0 .403-.016.598-.05l.496-.096.138-.035c.049-.012.045-.064.045-.064v-1.801c0-.395-.106-.688-.313-.87s-.511-.273-.905-.273c-.148 0-.385.02-.528.049 0 0-.43.083-.608.222 0 0-.039.024-.017.078l.139.375c.017.048.064.032.064.032s.015-.006.032-.016c.379-.206.858-.2.858-.2.213 0 .377.043.487.127s.162.207.162.469v.083l-.325-.038m15.889-1.015c.015-.045-.016-.066-.03-.071a1.71 1.71 0 0 0-.33-.057.98.98 0 0 0-.508.082c-.122.055-.258.144-.333.245v-.24c0-.033-.024-.06-.057-.06h-.505c-.033 0-.057.027-.057.06v2.938c0 .033.027.06.06.06h.518a.06.06 0 0 0 .06-.06v-1.468a1.72 1.72 0 0 1 .065-.517c.043-.122.101-.22.172-.29s.154-.119.244-.146a.95.95 0 0 1 .264-.037c.103 0 .216.027.216.027.038.004.059-.019.072-.053l.148-.413"></path><path d="M519.258 147.043a1.69 1.69 0 0 0-.195-.046c-.076-.014-.166-.02-.268-.02-.356 0-.637.101-.834.299s-.329.498-.396.894l-.024.133h-.447s-.054-.002-.066.057l-.073.41c-.005.039.012.063.064.063h.435l-.442 2.465a3.05 3.05 0 0 1-.118.486c-.043.122-.085.214-.137.28s-.098.111-.18.139c-.068.023-.146.033-.232.033a.87.87 0 0 1-.158-.017c-.046-.009-.071-.019-.107-.034 0 0-.051-.019-.071.032l-.146.4c-.014.039.006.07.03.079a1.61 1.61 0 0 0 .18.053c.109.026.202.027.289.027.181 0 .347-.026.484-.075s.258-.137.364-.254a1.3 1.3 0 0 0 .256-.441c.068-.179.127-.402.173-.661l.444-2.511h.649s.055.002.066-.058l.074-.41c.005-.039-.012-.063-.064-.063h-.63c.003-.014.032-.236.104-.444a.58.58 0 0 1 .138-.21c.048-.048.104-.083.165-.103s.134-.03.212-.03c.059 0 .118.007.162.016l.101.025c.064.019.073 0 .086-.03l.151-.413c.015-.045-.023-.064-.036-.069m-8.8 4.26c0 .033-.024.06-.057.06h-.522c-.033 0-.056-.027-.056-.06v-4.204c0-.033.023-.06.056-.06h.522c.033 0 .057.027.057.06v4.204z"></path></g></g></g></svg>